<?xml version="1.0" encoding="UTF-8"?>
<svg id="_레이어_1" data-name="레이어 1" xmlns="http://www.w3.org/2000/svg" viewBox="0 0 85.31 80.58">
  <defs>
    <style>
      .cls-1 {
        fill: #124572;
      }
    </style>
  </defs>
  <g>
    <path class="cls-1" d="M2.76,72.14c1.15,0,2.02.31,2.61.92.59.61.89,1.49.89,2.65v1.19c0,1.15-.29,2.04-.87,2.65s-1.45.92-2.63.92H0v-8.32h2.76ZM1.14,79.44h1.51c.37,0,.7-.05,1-.14.3-.1.56-.25.77-.46.21-.21.37-.48.49-.81.12-.33.17-.73.17-1.2v-1.07c0-.47-.06-.87-.17-1.2-.12-.33-.28-.6-.49-.81-.21-.21-.47-.37-.77-.46-.3-.1-.63-.15-1-.15h-1.51v6.3Z"/>
    <path class="cls-1" d="M14.25,80.46h-1.2l-.88-2.45h-3.19l-.88,2.45h-1.17l3.09-8.32h1.11l3.1,8.32ZM9.34,77.03h2.49l-.69-1.95c-.06-.17-.12-.32-.16-.44-.05-.13-.09-.25-.13-.37-.04-.12-.08-.24-.12-.37s-.09-.29-.14-.48c-.06.19-.11.35-.15.49s-.08.26-.12.37c-.04.12-.08.24-.12.36-.04.13-.09.28-.16.44l-.7,1.95Z"/>
    <path class="cls-1" d="M18.35,80.58c-.5,0-.96-.08-1.37-.23s-.77-.38-1.07-.69-.53-.69-.7-1.14c-.17-.45-.25-.99-.25-1.6v-1.26c0-.61.08-1.14.25-1.59.16-.46.4-.84.7-1.14s.66-.54,1.07-.69c.42-.15.87-.23,1.36-.23s.95.08,1.36.23c.42.15.77.38,1.07.69s.53.69.7,1.14c.16.45.25.98.25,1.59v1.26c0,.61-.08,1.15-.25,1.6-.17.46-.4.84-.7,1.14s-.66.54-1.07.69c-.42.15-.87.23-1.36.23ZM18.35,73.05c-.32,0-.62.05-.9.16-.27.1-.51.26-.7.48s-.35.5-.46.85c-.11.35-.17.77-.17,1.25v1c0,.48.06.9.17,1.25.11.35.26.64.46.86.2.22.43.38.7.48.27.1.57.15.9.15s.62-.05.89-.15c.27-.1.51-.27.7-.48.2-.22.35-.5.46-.86.11-.35.17-.77.17-1.25v-1c0-.48-.06-.9-.17-1.25-.11-.35-.27-.63-.46-.85s-.43-.38-.7-.48c-.27-.1-.57-.16-.89-.16Z"/>
    <path class="cls-1" d="M24.69,72.14l3.23,5.61c.08.14.18.31.28.52.1.21.21.44.31.69v-6.82h1.06v8.32h-1.32l-3.23-5.59c-.08-.15-.18-.33-.28-.54-.1-.21-.21-.44-.31-.68v6.81h-1.06v-8.32h1.32Z"/>
    <path class="cls-1" d="M37.49,79.52c-.42.4-.87.68-1.36.83-.49.15-1.02.23-1.58.23-.5,0-.95-.08-1.36-.23s-.76-.38-1.05-.69c-.29-.31-.52-.69-.68-1.14-.16-.45-.24-.99-.24-1.6v-1.26c0-.61.08-1.14.24-1.59.16-.46.39-.84.69-1.14s.65-.54,1.06-.69c.41-.15.86-.23,1.35-.23.58,0,1.08.07,1.51.21.43.14.84.37,1.24.68l-.59.93c-.38-.31-.74-.51-1.08-.61-.34-.1-.7-.15-1.08-.15-.32,0-.61.05-.87.16-.27.11-.5.27-.69.5-.2.22-.35.51-.46.86-.11.35-.16.76-.16,1.23v.96c0,.48.05.89.16,1.24.11.35.26.63.46.85.2.22.43.39.69.5.26.11.56.16.87.16.4,0,.8-.06,1.2-.19.4-.12.77-.35,1.12-.69l.62.88Z"/>
    <path class="cls-1" d="M42.02,80.58c-.5,0-.96-.08-1.37-.23s-.77-.38-1.07-.69-.53-.69-.7-1.14c-.17-.45-.25-.99-.25-1.6v-1.26c0-.61.08-1.14.25-1.59.16-.46.4-.84.7-1.14s.66-.54,1.07-.69c.42-.15.87-.23,1.36-.23s.95.08,1.36.23c.42.15.77.38,1.07.69s.53.69.7,1.14c.16.45.25.98.25,1.59v1.26c0,.61-.08,1.15-.25,1.6-.17.46-.4.84-.7,1.14s-.66.54-1.07.69c-.42.15-.87.23-1.36.23ZM42.02,73.05c-.32,0-.62.05-.9.16-.27.1-.51.26-.7.48s-.35.5-.46.85c-.11.35-.17.77-.17,1.25v1c0,.48.06.9.17,1.25.11.35.26.64.46.86.2.22.43.38.7.48.27.1.57.15.9.15s.62-.05.89-.15c.27-.1.51-.27.7-.48.2-.22.35-.5.46-.86.11-.35.17-.77.17-1.25v-1c0-.48-.06-.9-.17-1.25-.11-.35-.27-.63-.46-.85s-.43-.38-.7-.48c-.27-.1-.57-.16-.89-.16Z"/>
    <path class="cls-1" d="M48.55,74.45c-.04-.08-.07-.17-.1-.25s-.06-.16-.09-.25c-.03-.08-.06-.18-.1-.29s-.08-.23-.13-.37v7.16h-1.09v-8.32h1.68l2.31,5.45,2.25-5.45h1.67v8.32h-1.1v-7.16c-.04.15-.07.28-.11.39-.04.1-.07.2-.09.28s-.06.17-.09.24c-.03.08-.07.16-.1.24l-1.99,4.62h-.97l-1.96-4.62Z"/>
    <path class="cls-1" d="M56.85,72.14h2.98c.47,0,.88.06,1.22.18.35.12.63.28.86.5.23.21.4.46.51.76.11.29.17.61.17.95v.24c0,.34-.06.66-.18.95-.12.3-.29.56-.52.78-.23.22-.52.4-.86.53-.34.13-.74.2-1.19.2h-1.84v3.24h-1.14v-8.32ZM57.99,73.13v3.09h1.64c1.2,0,1.8-.5,1.8-1.49v-.21c0-.48-.14-.83-.43-1.06s-.7-.34-1.24-.34h-1.77Z"/>
    <path class="cls-1" d="M69.96,80.46h-1.2l-.88-2.45h-3.19l-.88,2.45h-1.17l3.09-8.32h1.11l3.1,8.32ZM65.05,77.03h2.49l-.69-1.95c-.06-.17-.12-.32-.16-.44-.05-.13-.09-.25-.13-.37-.04-.12-.08-.24-.12-.37s-.09-.29-.14-.48c-.06.19-.11.35-.15.49s-.08.26-.12.37c-.04.12-.08.24-.12.36-.04.13-.09.28-.16.44l-.7,1.95Z"/>
    <path class="cls-1" d="M72.46,72.14l3.23,5.61c.08.14.18.31.28.52.1.21.21.44.31.69v-6.82h1.06v8.32h-1.32l-3.23-5.59c-.08-.15-.18-.33-.28-.54-.1-.21-.21-.44-.31-.68v6.81h-1.06v-8.32h1.32Z"/>
    <path class="cls-1" d="M82.47,77.11v3.35h-1.14v-3.35l-2.86-4.97h1.27l2.18,3.89,2.12-3.89h1.27l-2.84,4.97Z"/>
  </g>
  <g>
    <path class="cls-1" d="M25.6,0H2.36s0,68.35,0,68.35h23.24c18.88,0,34.18-15.3,34.18-34.18h0C59.78,15.3,44.48,0,25.6,0ZM29.2,44.15h-6.5v-19.94h6.78c6.04,0,10.83,5.37,9.84,11.6-.77,4.87-5.19,8.33-10.12,8.33Z"/>
    <path class="cls-1" d="M68,24.21h6.04c4.92,0,8.91,3.99,8.91,8.91v2.12c0,4.92-3.99,8.91-8.91,8.91h-6.04v-19.94h0Z" transform="translate(150.95 68.35) rotate(-180)"/>
  </g>
</svg>